<?xml version="1.0" standalone="no"?>
<!DOCTYPE svg PUBLIC "-//W3C//DTD SVG 20010904//EN"
 "http://www.w3.org/TR/2001/REC-SVG-20010904/DTD/svg10.dtd">
<svg version="1.0" xmlns="http://www.w3.org/2000/svg"
 width="300.000000pt" height="170.000000pt" viewBox="0 0 300.000000 170.000000"
 preserveAspectRatio="xMidYMid meet">
<metadata>
Created by potrace 1.10, written by Peter Selinger 2001-2011
</metadata>
<g transform="translate(0.000000,170.000000) scale(0.100000,-0.100000)"
fill="#000000" stroke="none">
<path d="M1872 1355 c-136 -25 -272 -108 -342 -210 -29 -42 -29 -43 -10 -60
18 -17 21 -16 50 8 53 45 132 47 177 5 l22 -21 7 29 c19 80 93 187 158 228 25
16 46 30 46 32 0 6 -31 3 -108 -11z m-28 -44 c3 -4 -6 -21 -20 -37 -13 -16
-35 -50 -46 -76 l-22 -47 -73 0 c-41 0 -78 -3 -83 -6 -5 -3 -11 -1 -14 4 -15
23 110 116 204 152 25 9 46 18 47 18 1 1 4 -3 7 -8z"/>
<path d="M1035 1259 c15 -55 77 -168 122 -224 123 -152 233 -181 362 -94 50
33 64 38 80 30 28 -15 34 -44 18 -83 -17 -41 -27 -49 -100 -78 -47 -19 -71
-22 -131 -18 -43 3 -82 11 -95 20 -32 22 -11 32 54 23 29 -3 62 -2 72 3 10 5
31 16 46 23 16 7 33 22 39 33 9 17 7 17 -27 -4 -32 -20 -53 -23 -148 -26 -61
-1 -131 1 -156 6 -25 4 -48 7 -50 5 -7 -8 123 -85 172 -101 28 -9 80 -17 117
-17 94 0 156 30 228 108 65 71 108 100 167 110 35 6 37 8 20 17 -11 6 -38 30
-61 54 -22 23 -53 46 -67 49 -45 12 -95 -4 -129 -39 l-32 -34 -46 48 c-60 61
-105 84 -210 105 -102 21 -173 47 -219 82 l-33 26 7 -24z m257 -123 c70 -15
118 -41 183 -100 22 -20 43 -36 48 -36 4 0 7 -6 7 -14 0 -20 -92 -56 -142 -56
-79 0 -178 76 -247 190 -32 54 -28 59 32 43 28 -7 82 -20 119 -27z m351 -96
c-4 -14 3 -30 17 -45 19 -20 21 -27 10 -40 -11 -13 -16 -12 -42 10 -16 14 -36
25 -44 25 -32 0 -5 42 38 59 13 6 24 10 25 10 0 1 -1 -8 -4 -19z m75 -18 c3
-16 -2 -22 -17 -22 -24 0 -35 15 -27 36 9 23 40 13 44 -14z"/>
<path d="M1020 554 l0 -75 46 3 c54 3 77 26 57 57 -6 10 -9 29 -6 41 8 29 -19
50 -64 50 l-33 0 0 -76z m68 29 c-2 -10 -12 -18 -23 -18 -11 0 -21 8 -23 18
-3 13 3 17 23 17 20 0 26 -4 23 -17z m10 -60 c-2 -12 -12 -18 -28 -18 -16 0
-26 6 -28 18 -3 13 3 17 28 17 25 0 31 -4 28 -17z"/>
<path d="M1150 555 l0 -75 45 0 c35 0 45 4 45 16 0 12 -7 15 -30 12 l-30 -5 0
64 c0 49 -3 63 -15 63 -12 0 -15 -15 -15 -75z"/>
<path d="M1260 572 c0 -66 18 -92 63 -92 40 0 57 25 57 81 0 27 0 52 0 57 0 4
-5 7 -12 7 -8 0 -11 -15 -10 -45 4 -56 -17 -91 -45 -74 -13 8 -19 26 -21 68
-2 41 -7 56 -17 56 -12 0 -15 -14 -15 -58z"/>
<path d="M1410 555 l0 -75 50 0 c40 0 50 3 50 16 0 13 -7 15 -35 11 -30 -5
-35 -3 -35 14 0 14 7 19 30 19 21 0 30 5 30 16 0 12 -7 14 -30 9 -26 -6 -30
-4 -30 14 0 17 6 21 35 21 24 0 35 5 35 15 0 11 -12 15 -50 15 l-50 0 0 -75z"/>
<path d="M1570 555 l0 -75 39 0 c57 0 71 8 71 41 0 16 -4 29 -9 29 -4 0 -6 12
-3 27 6 33 -18 53 -65 53 l-33 0 0 -75z m76 34 c7 -12 -12 -29 -33 -29 -7 0
-13 9 -13 20 0 22 34 28 46 9z m10 -60 c8 -13 -13 -29 -38 -29 -11 0 -18 8
-18 20 0 15 7 20 24 20 14 0 28 -5 32 -11z"/>
<path d="M1709 626 c-10 -10 3 -146 14 -146 8 0 12 23 10 72 -1 63 -9 89 -24
74z"/>
<path d="M1770 555 c0 -62 3 -75 16 -75 12 0 14 7 9 30 -5 23 -3 30 9 30 8 0
22 -13 31 -30 9 -16 22 -30 30 -30 19 0 19 5 -1 36 -13 19 -14 28 -5 37 17 17
13 55 -8 67 -11 5 -33 10 -50 10 l-31 0 0 -75z m75 25 c0 -9 -11 -16 -27 -18
-23 -3 -28 1 -28 18 0 17 5 21 28 18 16 -2 27 -9 27 -18z"/>
<path d="M1902 555 l1 -75 38 0 c52 0 67 8 85 42 29 57 -14 108 -91 108 l-34
0 1 -75z m92 29 c29 -29 11 -70 -34 -76 -23 -3 -25 0 -28 45 -3 44 -2 47 22
47 13 0 32 -7 40 -16z"/>
<path d="M1011 428 c-1 -4 4 -19 9 -34 10 -26 11 -26 25 -8 8 10 14 26 14 34
0 12 -2 12 -12 -2 -12 -15 -14 -15 -24 0 -7 9 -12 14 -12 10z"/>
<path d="M1100 400 c0 -25 4 -30 23 -30 21 1 21 1 2 12 -19 11 -19 11 0 19 20
7 20 8 0 9 -20 1 -20 1 0 10 19 8 19 9 -2 9 -19 1 -23 -4 -23 -29z"/>
<path d="M1150 399 c0 -24 4 -30 18 -27 10 2 18 14 20 31 3 22 -1 27 -17 27
-17 0 -21 -6 -21 -31z"/>
<path d="M1230 415 c0 -8 5 -15 10 -15 6 0 10 -5 10 -11 0 -5 -4 -7 -10 -4 -5
3 -10 1 -10 -4 0 -15 27 -14 36 1 4 6 -1 17 -10 24 -16 12 -16 13 1 17 14 4
14 5 -4 6 -14 1 -23 -5 -23 -14z"/>
<path d="M1277 418 c-6 -18 11 -48 27 -48 8 0 19 7 27 16 11 14 13 14 21 0 5
-9 17 -16 26 -16 16 1 16 1 0 11 -10 5 -18 16 -18 24 0 7 8 16 18 18 13 4 11
5 -5 6 -13 0 -23 -4 -23 -11 0 -9 -3 -9 -12 0 -16 16 -55 15 -61 0z"/>
<path d="M1432 405 c-7 -14 -12 -27 -12 -28 0 -1 14 -2 30 -2 17 0 30 1 30 2
0 9 -25 53 -30 53 -4 0 -12 -11 -18 -25z"/>
<path d="M1557 423 c-4 -3 -6 -18 -6 -32 1 -20 3 -21 6 -7 4 15 7 16 14 5 8
-12 11 -12 19 1 8 13 10 12 10 -4 0 -11 2 -17 5 -14 4 3 3 18 -1 33 -5 20 -9
23 -15 13 -7 -10 -11 -10 -17 0 -5 7 -11 9 -15 5z"/>
<path d="M1620 400 c0 -25 4 -30 23 -30 21 1 21 1 2 12 -19 11 -19 11 0 19 20
7 20 8 0 9 -20 1 -20 1 0 10 19 8 19 9 -2 9 -19 1 -23 -4 -23 -29z"/>
<path d="M1670 400 c0 -27 3 -31 23 -28 16 2 22 10 22 28 0 18 -6 26 -22 28
-20 3 -23 -1 -23 -28z m38 3 c-5 -25 -28 -28 -28 -4 0 12 6 21 16 21 9 0 14
-7 12 -17z"/>
<path d="M1730 401 c0 -28 2 -29 44 -28 l44 2 -14 27 c-18 35 -20 35 -38 1
l-15 -28 -1 28 c0 15 -4 27 -10 27 -5 0 -10 -13 -10 -29z"/>
<path d="M1862 405 c-7 -14 -12 -27 -12 -28 0 -1 13 -2 28 -2 27 0 28 2 18 28
-13 34 -20 34 -34 2z"/>
<path d="M1920 400 c0 -29 1 -29 20 -13 11 10 20 23 20 30 0 7 -9 13 -20 13
-16 0 -20 -7 -20 -30z"/>
<path d="M1970 400 c0 -30 0 -30 25 -14 30 19 28 38 -3 42 -19 3 -22 -1 -22
-28z"/>
</g>
</svg>
